<svg version="1.1" id="Layer_1" xmlns="http://www.w3.org/2000/svg" xmlns:xlink="http://www.w3.org/1999/xlink" x="0px" y="0px" viewBox="0 0 250 240.05222" style="enable-background:new 0 0 250 240.05222;" xml:space="preserve"><defs><style> .svg-style-0 {  fill: rgb(0, 0, 0); }</style></defs><g id="path-01"><path d="M221.10664,15.43951c-2.79382-2.1362-6.33772-2.83263-9.72212-1.91348L14.19761,67.12079
		c-3.16024,0.85928-5.36685,3.71201-5.36685,6.93835V217.2619c0,2.01358,0.86454,3.94334,2.37234,5.29404
		c1.34542,1.20605,3.09845,1.86511,4.90656,1.86464c0.27062,0,0.54267-0.01437,0.81425-0.04456l198.59317-21.84004
		c5.67867-0.62457,9.96114-5.37883,9.96114-11.05797V24.25015C225.47821,20.77475,223.88467,17.56326,221.10664,15.43951z
		 M220.71054,191.47801c0,3.24406-2.45663,5.9603-5.71458,6.31905L16.40279,219.6371
		c-0.7424,0.07999-1.47858-0.14799-2.01838-0.63176c-0.50675-0.45454-0.78599-1.07336-0.78599-1.74344V74.05914
		c0-1.08008,0.7606-2.04137,1.8493-2.33737l197.18692-53.59476c0.55991-0.15231,1.12749-0.22703,1.69028-0.22703
		c1.3871,0,2.74498,0.45454,3.88635,1.32722c1.58827,1.21419,2.49927,3.04481,2.49927,5.02295V191.47801z" class="svg-style-0"/><path d="M241.17786,3.66165c-0.08238-0.02874-0.1662-0.05317-0.25145-0.0728l-13.58717-3.14108
		c-0.39946-0.11292-0.80226-0.20937-1.21059-0.27984l-0.51538-0.11914l-0.01173,0.05077
		c-1.58275-0.20087-3.21005-0.10376-4.80717,0.34582L7.84121,60.40037C3.22442,61.69981,0,65.95689,0,70.7533v154.05045
		c0,2.40923,1.02499,4.7169,2.81251,6.33199c0.26008,0.23499,0.53728,0.44568,0.82143,0.64499l-0.00048,0.00066l0.01317,0.00803
		c0.31971,0.22337,0.6514,0.42628,0.99626,0.60284l8.22989,4.98015c0.04885,0.02969,0.09867,0.05746,0.14944,0.08333
		c3.35518,1.71423,7.03798,2.5965,10.76867,2.5965c0.80371,0,1.61029-0.04071,2.41592-0.12309l207.81955-20.20389
		C243.13301,218.79268,250,211.18665,250,202.03258V16.10097C250,10.50948,246.45467,5.51048,241.17786,3.66165z
		 M231.38437,199.34557c0,3.76852-2.82735,6.89764-6.57625,7.27841L8.91458,228.55072
		c-0.72348,0.07179-1.42338-0.0737-2.05238-0.3882l-0.4755-0.2878c-0.12753-0.08963-0.25996-0.16998-0.37803-0.27667
		c-0.80036-0.72324-1.24101-1.71567-1.24101-2.79431V70.7533c0-2.67026,1.79518-5.0402,4.36533-5.76344L222.08662,5.03486
		c0.66338-0.1868,1.33585-0.27876,2.00256-0.27876c0.37288,0,0.74336,0.03317,1.10965,0.09017l0.54831,0.12681
		c0.97398,0.23086,1.90833,0.64284,2.73802,1.27118c1.84261,1.39524,2.8992,3.5209,2.8992,5.83241V199.34557z" class="svg-style-0"/><path d="M188.13823,54.86361l-27.67102,49.03497c-1.50061-0.81413-3.23149-1.02242-4.9789-0.56339
		c-1.20544,0.31618-2.32982,0.93902-3.33134,1.7747l-14.90492-16.66257c0.96512-1.85121,1.52599-4.00065,1.49821-6.19061v-0.00048
		c-0.03928-3.03715-1.20892-5.62837-3.20958-7.10934c-1.64957-1.22089-3.68375-1.5648-5.728-0.96991
		c-4.19242,1.22233-7.42258,6.2424-7.35458,11.42964c0.02371,1.79668,0.45263,3.43211,1.20808,4.78036l-19.96931,32.55381
		c-1.35153-0.68313-2.88435-0.85233-4.42519-0.454c-1.19814,0.3099-2.31127,0.95315-3.28909,1.82739l-17.48035-22.57419
		c0.80682-1.70807,1.26939-3.66316,1.23993-5.65735c-0.04359-2.9926-1.17922-5.52779-3.11569-6.95512
		c-1.5375-1.13324-3.41841-1.45367-5.29693-0.90094c-3.89354,1.14474-6.88519,5.9488-6.81046,10.93679
		c0.03545,2.39203,0.78096,4.48315,2.06628,5.95898l-26.47121,53.13698c-0.48879-0.00635-0.9838,0.04245-1.47953,0.16165
		c-3.792,0.91245-6.70072,5.47655-6.62223,10.38982c0.04646,2.92842,1.14138,5.4454,3.00314,6.90578
		c1.06044,0.8315,2.30145,1.26256,3.59035,1.26256c0.44161-0.00047,0.88849-0.05077,1.33585-0.15279
		c3.82936-0.87604,6.76832-5.4454,6.69025-10.40321c-0.03856-2.47676-0.83221-4.64708-2.19727-6.14452l26.4142-53.02246
		c0.09771,0.00485,0.19338,0.02335,0.29193,0.02335c0.56615,0,1.14234-0.08047,1.71854-0.24284
		c0.94225-0.26547,1.8299-0.74821,2.63769-1.39081l17.63349,22.772c-0.64852,1.55455-1.01434,3.28316-0.98931,5.04977
		c0.04215,2.98349,1.17779,5.55269,3.1157,7.049c1.12174,0.86597,2.4346,1.31332,3.80541,1.31332
		c0.52016,0,1.04942-0.06465,1.57868-0.19493c4.11243-1.01303,7.27842-5.84296,7.20753-10.99619
		c-0.02036-1.46523-0.3075-2.82664-0.81952-4.01322l20.27142-33.04626c0.68636,0.24948,1.40674,0.3867,2.14818,0.3867
		c0.61404,0,1.23958-0.08669,1.86702-0.26151c1.03505-0.28912,2.01071-0.81084,2.89561-1.50618l14.97784,16.74417
		c-0.87604,1.77357-1.37918,3.79936-1.35381,5.86732c0.03784,3.02565,1.20605,5.64513,3.20622,7.18694
		c1.19359,0.91962,2.59554,1.3938,4.06598,1.3938c0.57571,0,1.16197-0.0728,1.74966-0.21985
		c4.40269-1.10067,7.80098-6.14805,7.7368-11.49095c-0.01749-1.44547-0.29984-2.79173-0.79929-3.9776l28.10222-49.79893
		l5.84773,4.72929l4.01317-26.16838l-19.37312,13.74642L188.13823,54.86361z M38.87891,172.17842
		c-0.34486,0.07951-0.63176,0.01437-0.92106-0.21315c-0.55177-0.43298-1.15096-1.50874-1.17875-3.23016
		c-0.04502-2.83023,1.53127-5.33237,2.97153-5.67867c0.09962-0.02443,0.19398-0.03639,0.28499-0.03639
		c0.2299,0,0.43682,0.07806,0.64565,0.23996c0.55465,0.42964,1.15671,1.50636,1.18401,3.23784
		C41.90982,169.34819,40.32539,171.84793,38.87891,172.17842z M74.97548,96.15257c0.04454,3.0405-1.76309,5.83145-3.40931,6.29509
		c-0.43586,0.12453-0.7788,0.06993-1.10738-0.17578c-0.55033-0.41-1.14713-1.46037-1.173-3.1794
		c-0.04598-3.10707,1.74872-5.8099,3.38871-6.29174c0.15806-0.04646,0.30415-0.06993,0.44113-0.06993
		c0.24859,0,0.46843,0.07712,0.68253,0.2347c0.55225,0.40713,1.15192,1.45847,1.17731,3.18658V96.15257z M99.50063,137.00578
		c-0.5125,0.12596-0.93494,0.04214-1.33009-0.26295c-0.75774-0.58482-1.24149-1.86607-1.26208-3.34225
		c-0.04503-3.15784,1.83828-5.85349,3.55682-6.29749c0.16142-0.04215,0.3142-0.06322,0.46029-0.06322
		c0.32282,0,0.61164,0.10345,0.88657,0.31373c0.59776,0.45598,1.24436,1.57581,1.26879,3.35135
		C103.12498,133.8877,101.22971,136.57997,99.50063,137.00578z M130.03349,89.11219
		c-0.59631,0.16668-1.09828,0.08957-1.5351-0.23853c-0.77737-0.58195-1.25299-1.82679-1.27263-3.33028
		c-0.04406-3.31447,2.03131-6.23857,3.92085-6.78939c0.21313-0.06178,0.41431-0.09292,0.60493-0.09292
		c0.35107,0,0.66577,0.10537,0.95267,0.31756c0.7812,0.57859,1.25922,1.82631,1.27837,3.33842
		C134.02522,85.65978,131.93547,88.58102,130.03349,89.11219z M155.70099,118.54582
		c-0.67535,0.16716-1.2458,0.06226-1.74872-0.32523c-0.82574-0.63654-1.33058-1.93407-1.34926-3.47013
		c-0.03784-3.04193,1.87611-6.22133,4.09518-6.80376c0.21745-0.057,0.42436-0.08574,0.6217-0.08574
		c0.42293,0,0.80275,0.13124,1.14905,0.39515c0.83148,0.63367,1.3392,1.93504,1.35739,3.48115
		C159.86322,114.80507,157.93538,117.98686,155.70099,118.54582z" class="svg-style-0"/></g></svg>