<svg version="1.1" id="Layer_1" xmlns="http://www.w3.org/2000/svg" xmlns:xlink="http://www.w3.org/1999/xlink" x="0px" y="0px" viewBox="0 0 171.57867 250" style="enable-background:new 0 0 171.57867 250;" xml:space="preserve"><defs><style> .st0 {  fill: #1760F8; } .svg-style-0 {  fill: rgb(0, 0, 0); }</style></defs><polygon id="path-03" class="st0" points="154.54964,232.96957 154.54977,21.10696 171.57867,19.50139 171.57867,250 
	19.49825,241.02335 19.49825,225.00398 "/><path id="path-02" d="M154.54947,235.44461c-0.04834,0-0.09669-0.00098-0.146-0.00388L2.32924,226.4651
	C1.02152,226.38776,0,225.30388,0,223.99374V16.83149c0-1.27678,0.97124-2.34422,2.2427-2.46412L154.31645,0.01246
	c0.69905-0.07107,1.38361,0.16485,1.89897,0.63331c0.51535,0.46942,0.80928,1.13368,0.80928,1.8308v230.4928
	c0,0.68166-0.28137,1.33333-0.77737,1.8013C155.78708,235.20482,155.17891,235.44461,154.54947,235.44461z M4.95047,221.66063
	l147.12376,8.68266V5.19643L4.95047,19.08386V221.66063z" class="svg-style-0"/><g id="path-01"><path d="M23.36632,133.56639l100.7097,1.81485h0.04545c1.34591,0,2.44913-1.07906,2.47427-2.43077
		c0.02417-1.36621-1.06358-2.49457-2.43076-2.51971l-11.21555-0.20201V50.82021l-10.05601,0.71604v78.51133l-8.89828-0.16026
		V63.13269l-9.64714,0.56926v66.01157l-8.54005-0.15385V74.94693l-9.26261,0.43359v54.01229l-8.20315-0.14775V86.29247
		l-8.9007,0.30807v42.48419l-7.8857-0.14207V97.19673l-8.55957,0.19187v31.39983l-7.1102-0.12805V47.9822
		c0-1.36718-1.10806-2.47523-2.47524-2.47523c-1.36718,0-2.47523,1.10806-2.47523,2.47523v83.10893
		C20.93556,132.44092,22.01655,133.54124,23.36632,133.56639z" class="svg-style-0"/><path d="M37.55832,85.12331c0.50037,0,1.00557-0.15132,1.44308-0.46556l55.22248-39.70837l-0.89492,2.03741
		c-0.54919,1.25164,0.01934,2.71212,1.27146,3.2618c0.32391,0.14214,0.66135,0.20933,0.99396,0.20933
		c0.95142,0,1.8603-0.55257,2.26736-1.4803l4.52311-10.29882c0.34131-0.77786,0.26009-1.6761-0.21465-2.38048
		c-0.47474-0.70341-1.27726-1.10467-2.12715-1.0892l-9.79072,0.29974c-1.36718,0.04206-2.44043,1.18347-2.39885,2.55017
		c0.04157,1.36573,1.18733,2.42496,2.54968,2.39837l1.65773-0.05076L36.11137,80.6384
		c-1.10999,0.79816-1.36283,2.3447-0.56466,3.4547C36.03015,84.76556,36.78867,85.12331,37.55832,85.12331z" class="svg-style-0"/><path d="M52.87094,159.81451c-0.98333-0.95045-2.55017-0.92725-3.50014,0.05609l-27.73763,28.63054
		c-0.95142,0.9814-0.92628,2.54872,0.05511,3.50014c0.48103,0.46507,1.10177,0.69713,1.72203,0.69713
		c0.64685,0,1.29273-0.25139,1.77811-0.7532l27.73763-28.63055C53.87747,162.33327,53.85233,160.76593,52.87094,159.81451z" class="svg-style-0"/><path d="M47.37756,178.5799c-1.9826-0.07155-3.83758,0.67586-5.23232,2.09332c-2.87939,2.92871-2.93402,7.82309-0.12424,11.14339
		c1.44405,1.70656,3.48128,2.7363,5.5891,2.8243c0.10201,0.00482,0.20353,0.00676,0.30505,0.00676
		c1.86271,0,3.60601-0.7213,4.9379-2.05077c2.9055-2.8997,2.96303-7.94203,0.1286-11.24008
		C51.526,179.66379,49.48344,178.65144,47.37756,178.5799z M49.35582,189.09288c-0.52986,0.52888-1.12885,0.6188-1.53784,0.60237
		c-0.72952-0.03093-1.46532-0.42349-2.0179-1.07712c-1.13464-1.3401-1.19169-3.38893-0.12569-4.47282
		c0.49601-0.50471,1.05681-0.6188,1.4629-0.6188c0.02514,0,0.0498,0.00096,0.07348,0.00096
		c0.72565,0.02515,1.46049,0.40997,2.01645,1.05681C50.39038,185.93695,50.44937,188.00127,49.35582,189.09288z" class="svg-style-0"/><path d="M28.36224,156.36659c-1.96762-0.0406-3.78876,0.73677-5.154,2.1929c-2.74983,2.93257-2.78658,7.73125-0.08412,10.92584
		c1.39184,1.64468,3.35704,2.62221,5.39186,2.68312c0.06961,0.00194,0.13923,0.0029,0.20836,0.0029
		c1.87673,0,3.6297-0.75804,4.95579-2.14746c2.8209-2.9548,2.85909-7.79506,0.08702-11.0206
		C32.36419,157.37216,30.39416,156.41107,28.36224,156.36659z M30.09974,166.60498c-0.00048,0-0.00048,0.00096-0.00097,0.00096
		c-0.50423,0.52792-1.06696,0.63235-1.43535,0.61398c-0.64201-0.01837-1.26711-0.35002-1.76022-0.93304
		c-1.06841-1.2618-1.1066-3.25069-0.08364-4.34134c0.38675-0.41286,0.86827-0.62944,1.39425-0.62944h0.04158
		c0.63815,0.0145,1.26276,0.33841,1.75732,0.91467C31.10772,163.50417,31.14736,165.50757,30.09974,166.60498z" class="svg-style-0"/><path d="M124.252,162.99365l-56.55817-3.00122c-1.35413-0.0851-2.53035,0.97559-2.60287,2.33986
		c-0.07252,1.36525,0.97559,2.53035,2.34084,2.60287l56.55721,3.00122c0.04545,0.0029,0.08992,0.00386,0.13343,0.00386
		c1.30724,0,2.39982-1.02393,2.46944-2.34373C126.66439,164.23126,125.61725,163.06616,124.252,162.99365z" class="svg-style-0"/><path d="M124.28777,176.63838l-56.55769-3.83177c-1.36911-0.0851-2.54436,0.93788-2.6367,2.30215
		c-0.09234,1.36429,0.93836,2.54486,2.30216,2.6367l56.55769,3.83179c0.05704,0.00386,0.11313,0.0058,0.17017,0.0058
		c1.28983,0,2.37855-1.00073,2.46654-2.30797C126.68276,177.91081,125.65205,176.73024,124.28777,176.63838z" class="svg-style-0"/><path d="M97.81629,188.09892l-30.04994-2.47717c-1.36477-0.11603-2.55839,0.90018-2.67055,2.26349
		c-0.11216,1.36235,0.90114,2.55742,2.26349,2.66959l30.0509,2.47716c0.06865,0.00581,0.1373,0.00871,0.20595,0.00871
		c1.27436,0,2.35728-0.9785,2.46364-2.27219C100.19193,189.40616,99.17863,188.21107,97.81629,188.09892z" class="svg-style-0"/></g></svg>