<svg version="1.1" id="Layer_1" xmlns="http://www.w3.org/2000/svg" xmlns:xlink="http://www.w3.org/1999/xlink" x="0px" y="0px" viewBox="0 0 173.36517 250" style="enable-background:new 0 0 173.36517 250;" xml:space="preserve"><defs><style> .st0 {  fill: #1760F8; } .svg-style-0 {  fill: rgb(0, 0, 0); }</style></defs><path id="path-03" class="st0" d="M170.94626,221.74165l-37.26091-63.19389l-1.74341,1.23584
	c-10.1482,7.19531-23.31883,11.61862-23.45028,11.6618l-2.03991,0.67838l28.40756,65.3096
	C137.9043,248.36308,146.52448,250,151.40596,250c2.8929,0,5.3334-0.53636,6.871-0.98541
	c2.43378-0.71194,4.70396-1.89885,6.74724-3.52713C173.38675,238.82753,175.65598,229.72856,170.94626,221.74165z"/><g id="path-02"><path d="M168.72446,82.57108c0-46.30038-33.26312-82.56915-75.72597-82.56915c-1.54858,0-9.71276,0.04018-11.96754,0.22698
		C79.28436,0.09355,77.52769,0,75.75092,0C33.98179,0,0,38.01603,0,84.74387c0,46.72832,33.98179,84.74387,75.75092,84.74387
		c6.87209,0,13.52643-1.04796,19.86029-2.97554c0.22015,1.16615,1.21323,5.23926,4.67854,7.68671
		c1.75781,1.24063,3.81882,1.86336,6.15426,1.86336c1.00652,0,2.06486-0.1161,3.17117-0.34734
		c9.57873-2.00826,21.43916-9.76295,26.09371-13.00417c5.69273-3.96371,6.10916-10.36839,3.99634-14.95674
		c-0.39838-0.86601-0.87784-1.65677-1.41318-2.37927C157.93892,132.27188,168.72446,110.07628,168.72446,82.57108z
		 M4.91266,84.74387c0-44.01917,31.77781-79.83121,70.83826-79.83121c39.05997,0,70.83778,35.81205,70.83778,79.83121
		c0,44.01868-31.77781,79.83121-70.83778,79.83121C36.69048,164.57509,4.91266,128.76256,4.91266,84.74387z M132.90138,158.67894
		c-9.17957,6.39221-18.26128,10.96329-24.29369,12.22696c-2.2721,0.47591-4.10667,0.23891-5.45766-0.70236
		c-2.22029-1.54576-2.71348-4.59891-2.72595-4.68141c-0.03034-0.21553-0.09631-0.41565-0.17702-0.60744
		c10.51802-4.03363,19.99348-10.58315,27.85764-19.01202c0.13414-0.01218,0.26872-0.02831,0.40311-0.06381
		c3.00517-0.78104,5.60254,1.50739,6.73572,3.96947C136.46306,152.45847,136.48897,156.18135,132.90138,158.67894z
		 M134.46039,142.00018c-0.70949-0.3829-1.45418-0.67178-2.218-0.87807c11.96657-14.99064,19.25899-34.74593,19.25899-56.37824
		c0-36.01882-20.19991-66.84109-48.58437-79.08622c34.84631,5.14252,60.8948,37.06894,60.8948,76.91342
		C163.8118,108.88097,153.39345,129.93819,134.46039,142.00018z" class="svg-style-0"/><path d="M136.76146,84.74387c0-16.16422-5.06732-31.0237-13.50627-42.72377c-0.11058-0.22429-0.25457-0.43232-0.43496-0.61828
		c-3.45505-4.67956-7.46698-8.82186-11.90492-12.33418c-0.09841-0.10674-0.20348-0.20917-0.32336-0.29979
		c-0.07214-0.05445-0.1507-0.09235-0.22656-0.13769c-9.84265-7.60917-21.76755-12.08112-34.61446-12.08112
		c-33.64117,0-61.01054,30.59187-61.01054,68.19482c0,18.21025,6.43132,34.76283,16.8727,47.00646
		c0.13643,0.23694,0.32281,0.44803,0.54104,0.63417c11.08389,12.67001,26.52861,20.55467,43.59681,20.55467
		c1.27866,0,2.54472-0.05888,3.80413-0.14597c0.0006,0,0.00114,0.00012,0.00174,0.00012c0.00456,0,0.009-0.00143,0.01356-0.00143
		C111.438,150.57898,136.76146,120.91178,136.76146,84.74387z M75.75092,21.46171c10.9856,0,21.23538,3.59472,29.89731,9.77591
		l-71.97174,95.2956c-8.71787-11.15639-14.02345-25.78313-14.02345-41.78934C19.65304,49.85007,44.81843,21.46171,75.75092,21.46171
		z M36.93689,130.36829l72.5887-96.1125c3.07665,2.62563,5.89945,5.60638,8.43656,8.87739l-71.93269,95.24481
		C42.75598,136.0612,39.71177,133.37352,36.93689,130.36829z M50.17666,141.03894l70.77716-93.71477
		c6.69955,10.27101,10.71142,22.89533,10.8755,36.55303l-53.47987,64.07496c-0.86188,0.04456-1.72711,0.07436-2.59852,0.07436
		C66.54148,148.02652,57.85173,145.49422,50.17666,141.03894z M85.50111,147.04987l45.97091-55.07859
		C128.64999,119.82952,109.73451,142.23633,85.50111,147.04987z" class="svg-style-0"/></g><g id="path-01"><path d="M92.99892,2.4582c0,0,63.48389-4.9198,73.26876,76.91763c0,0,5.58044,44.00101-31.34787,65.24539l-5.32849-4.06252
		C129.59132,140.55872,195.13199,54.62574,92.99892,2.4582z" class="svg-style-0"/><path d="M30.10971,87.97373c0,28.7812,16.46481,53.22028,39.40261,62.13073c-29.39461-3.48674-52.31624-31.41236-52.31624-65.35915
		c0-36.30345,26.21467-65.74654,58.54724-65.74654c6.71495,0,13.15561,1.25893,19.16041,3.59965
		c-2.05007-0.24218-4.13227-0.37124-6.24677-0.37124c-32.33257,0-58.54724,29.44308-58.54724,65.74654L30.10971,87.97373z" class="svg-style-0"/></g></svg>